Coordinates
version=1
nRows=12
nColumns=24
inDegrees=yes

Units are S.I. units (second, meters, Newtons, ...)
Angles are in degrees.

endheader
time	pelvis_tilt	pelvis_list	pelvis_rotation	pelvis_tx	pelvis_ty	pelvis_tz	hip_flexion_r	hip_adduction_r	hip_rotation_r	knee_angle_r	ankle_angle_r	subtalar_angle_r	mtp_angle_r	hip_flexion_l	hip_adduction_l	hip_rotation_l	knee_angle_l	ankle_angle_l	subtalar_angle_l	mtp_angle_l	lumbar_extension	lumbar_bending	lumbar_rotation
      0.72900000	     -2.79715022	      6.66751573	     14.03684969	      0.07357518	      0.97383970	      0.27423729	     29.38934062	    -12.09419218	     -9.42210881	     -1.50818248	      9.38193408	     -8.02909589	      8.13024852	    -22.88705406	      5.26516067	     14.45044828	     -1.11118668	      6.88400434	    -11.33168092	     12.00076267	     -1.82479764	     -8.12337042	     -4.80753710
      0.73316667	     -2.78143751	      6.63002429	     14.13889109	      0.07988754	      0.97328758	      0.27447391	     29.36141533	    -12.09244868	     -9.31334949	     -1.91140130	      9.47159034	     -8.18760696	      8.10883077	    -23.07280356	      5.10111530	     14.44873941	     -1.44490690	      6.70153595	    -11.29960238	     12.02486240	     -1.78269551	     -8.05185592	     -4.83391680
      0.73733333	     -2.77013472	      6.57675183	     14.22043929	      0.08626462	      0.97274816	      0.27476461	     29.33810403	    -12.05816599	     -9.15179903	     -2.34661298	      9.50131881	     -8.40761704	      8.07825258	    -23.23980412	      4.92921395	     14.41409193	     -1.79765299	      6.49750067	    -11.23840262	     12.08194401	     -1.74491240	     -7.96662705	     -4.88994301
      0.74150000	     -2.75295277	      6.50604371	     14.30667835	      0.09269443	      0.97225823	      0.27504501	     29.31900198	    -12.00711405	     -9.08812715	     -2.84206174	      9.45873595	     -8.56616313	      8.06744427	    -23.39436063	      4.73978640	     14.37763302	     -2.17969028	      6.28999319	    -11.22118735	     12.10990705	     -1.69553318	     -7.87082619	     -4.90850723
      0.74566667	     -2.75265868	      6.41906479	     14.35351698	      0.09922038	      0.97175486	      0.27540817	     29.31036202	    -11.91105647	     -8.89299489	     -3.33623880	      9.36389797	     -8.86335336	      8.04544252	    -23.52271015	      4.55054871	     14.26912264	     -2.56851747	      6.03015305	    -11.11683204	     12.22696149	     -1.60383004	     -7.74187861	     -4.96771288
      0.74983333	     -2.74214192	      6.31394852	     14.40530207	      0.10579440	      0.97131055	      0.27577180	     29.29717705	    -11.79511792	     -8.78921870	     -3.87045810	      9.19029939	     -9.11247786	      8.03305386	    -23.63730075	      4.34169755	     14.14854304	     -2.99656297	      5.76958071	    -11.03120609	     12.37907262	     -1.51183972	     -7.60099776	     -4.98994042
      0.75400000	     -2.73625576	      6.19828368	     14.43962077	      0.11242112	      0.97088836	      0.27617111	     29.30234571	    -11.65836260	     -8.69928438	     -4.44612904	      8.97661597	     -9.32275781	      8.03451030	    -23.73366269	      4.13182711	     14.01588575	     -3.44381845	      5.48683180	    -10.96072818	     12.54778384	     -1.41258300	     -7.45261696	     -4.99979141
      0.75816667	     -2.70306477	      6.08627524	     14.47266767	      0.11905587	      0.97054291	      0.27657474	     29.29889991	    -11.52099225	     -8.69156251	     -5.08531359	      8.75690915	     -9.45329572	      8.03617947	    -23.84335669	      3.92406583	     13.92308248	     -3.92247456	      5.20805625	    -10.97076582	     12.59967482	     -1.35609304	     -7.31969405	     -5.00384695
      0.76233333	     -2.73868306	      5.92260389	     14.46673354	      0.12582447	      0.97011819	      0.27707262	     29.34538203	    -11.30567196	     -8.50365017	     -5.65781650	      8.35506043	     -9.89494646	      8.09561162	    -23.84191910	      3.69517590	     13.64753673	     -4.45401966	      4.93624915	    -10.73625875	     13.04921197	     -1.15100503	     -7.11584610	     -4.96729259
      0.76650000	     -2.70468458	      5.76387169	     14.46984740	      0.13260150	      0.96984000	      0.27753494	     29.34579138	    -11.10193492	     -8.53339660	     -6.31220743	      8.02419240	     -9.95994080	      9.30937728	    -23.89903252	      3.44887018	     13.36855078	     -4.99018071	      4.47054869	    -10.64682879	     19.68065682	     -1.05961575	     -6.91408356	     -4.98592140
      0.77066667	     -2.70763094	      5.59334587	     14.43402423	      0.13942923	      0.96953141	      0.27806578	     29.39519528	    -10.86478260	     -8.45347967	     -6.97349727	      7.62469770	    -10.16308292	      9.30891453	    -23.91681261	      3.22414245	     13.15448152	     -5.54203251	      4.07802344	    -10.62455557	     19.72974839	     -0.90491462	     -6.70559043	     -4.93403052
      0.77483333	     -2.67979095	      5.42357234	     14.39055545	      0.14628336	      0.96931396	      0.27859213	     29.42536772	    -10.62515027	     -8.44655028	     -7.67331058	      7.22791466	    -10.22108655	      9.31341354	    -23.95169084	      2.99837709	     12.92308950	     -6.11456047	      3.60833934	    -10.62706949	     19.75873751	     -0.77845955	     -6.48970596	     -4.93110634
